<svg xmlns="http://www.w3.org/2000/svg" width="24.433" height="18" viewBox="0 0 24.433 18">
  <g id="email" transform="translate(0 -57.088)">
    <g id="Group_35" data-name="Group 35" transform="translate(0 62.165)">
      <g id="Group_34" data-name="Group 34">
        <path id="Path_34" data-name="Path 34" d="M12.923,154.21a1.389,1.389,0,0,1-1.442,0L0,147.2v9.317a3.607,3.607,0,0,0,3.606,3.606H20.827a3.607,3.607,0,0,0,3.606-3.606V147.2Z" transform="translate(0 -147.2)" fill="#fff"/>
      </g>
    </g>
    <g id="Group_37" data-name="Group 37" transform="translate(0.115 57.088)">
      <g id="Group_36" data-name="Group 36" transform="translate(0 0)">
        <path id="Path_35" data-name="Path 35" d="M22.759,57.088H5.538a3.584,3.584,0,0,0-3.49,2.827L14.163,67.3,26.25,59.915A3.584,3.584,0,0,0,22.759,57.088Z" transform="translate(-2.048 -57.088)" fill="#fff"/>
      </g>
    </g>
  </g>
</svg>
