<svg xmlns="http://www.w3.org/2000/svg" width="19.273" height="19.273" viewBox="0 0 19.273 19.273">
  <path id="_5d98c3fa4aefbe320a8c622b_linkedin" data-name="5d98c3fa4aefbe320a8c622b_linkedin" d="M16.42,16.424H13.566V11.952c0-1.066-.022-2.439-1.487-2.439-1.488,0-1.715,1.16-1.715,2.36v4.551H7.509v-9.2h2.742V8.481h.037A3.008,3.008,0,0,1,12.994,7c2.892,0,3.427,1.9,3.427,4.381v5.048ZM4.286,5.969A1.657,1.657,0,1,1,5.943,4.311,1.656,1.656,0,0,1,4.286,5.969ZM5.717,16.424H2.855v-9.2H5.717ZM17.848,0H1.422A1.405,1.405,0,0,0,0,1.388v16.5a1.4,1.4,0,0,0,1.422,1.388H17.845a1.41,1.41,0,0,0,1.428-1.388V1.388A1.411,1.411,0,0,0,17.845,0Z" fill="#272929"/>
</svg>
