<svg xmlns="http://www.w3.org/2000/svg" width="220.159" height="27.074" viewBox="0 0 220.159 27.074">
  <g id="Group_6" data-name="Group 6" transform="translate(-231.834 -127.543)">
    <g id="Group_5" data-name="Group 5" transform="translate(231.834 127.543)">
      <path id="Path_22" data-name="Path 22" d="M241.349,130.019h-9.515v-2.476h21.891v2.476h-9.515v24.6h-2.862Z" transform="translate(-231.834 -127.543)" fill="#101a2f"/>
      <path id="Path_23" data-name="Path 23" d="M309.114,152.142v2.475H289.969V127.543h19.145v2.476H292.832v9.631h16.283v2.436H292.832v10.056Z" transform="translate(-255.776 -127.543)" fill="#101a2f"/>
      <path id="Path_24" data-name="Path 24" d="M349.4,130.019h-9.515v-2.476h21.891v2.476h-9.515v24.6H349.4Z" transform="translate(-276.334 -127.543)" fill="#101a2f"/>
      <path id="Path_25" data-name="Path 25" d="M403.554,127.543h-2.823l-12.377,27.074h2.978l3.249-7.233,1.044-2.32,6.5-14.544,6.5,14.544,1.045,2.32,3.249,7.233h3.017Z" transform="translate(-296.295 -127.543)" fill="#101a2f"/>
    </g>
    <path id="Path_26" data-name="Path 26" d="M471.968,127.543l-11.99,27.074h-2.824l-11.99-27.074h3.094l10.366,23.516,10.443-23.516Z" transform="translate(-87.858 0)" fill="#101a2f"/>
    <path id="Path_27" data-name="Path 27" d="M529.051,152.142v2.475H510.533V127.543H529.1v2.476H513.4v9.631h15.656v2.436H513.4v10.056Z" transform="translate(-114.779 0)" fill="#101a2f"/>
    <path id="Path_28" data-name="Path 28" d="M590.309,127.543v27.074h-2.36l-17.4-21.968v21.968h-2.862V127.543h2.359l17.444,21.969V127.543Z" transform="translate(-138.316 0)" fill="#101a2f"/>
  </g>
</svg>
