<svg xmlns="http://www.w3.org/2000/svg" xmlns:xlink="http://www.w3.org/1999/xlink" width="171" height="47.31" viewBox="0 0 171 47.31">
  <defs>
    <clipPath id="clip-path">
      <path id="path16" d="M0-58.495H171V-27.27H0Z" transform="translate(0 58.495)"/>
    </clipPath>
  </defs>
  <g id="Group_30" data-name="Group 30" transform="translate(-299 -2890.505)">
    <g id="g12" transform="translate(299 2890.505)">
      <g id="g14" clip-path="url(#clip-path)">
        <g id="g20" transform="translate(0 7.122)">
          <path id="path22" d="M0-2.534c0-1.682.957-2.8,2.407-2.8.956,0,1.484.33,2.341,1.583A5.741,5.741,0,0,1,9-5.436a6.7,6.7,0,0,1,3.3.824,3.99,3.99,0,0,1,1.353,1.287c1.945-1.583,3.231-2.111,5.077-2.111A5.557,5.557,0,0,1,24.565.17V8.61a3.5,3.5,0,0,1-.33,2.011,2.407,2.407,0,0,1-4.188,0,3.438,3.438,0,0,1-.33-2.011V1.258a2.363,2.363,0,0,0-2.473-2.506,2.415,2.415,0,0,0-2.538,2.506V8.61a3.5,3.5,0,0,1-.33,2.011,2.407,2.407,0,0,1-4.188,0,3.431,3.431,0,0,1-.33-2.011V1.72c0-1.88-.923-2.968-2.505-2.968A2.425,2.425,0,0,0,4.848,1.258V8.61a3.5,3.5,0,0,1-.33,2.011,2.372,2.372,0,0,1-2.078,1.22,2.385,2.385,0,0,1-2.11-1.22A3.437,3.437,0,0,1,0,8.61Z" transform="translate(0 5.436)" fill="#292f38"/>
        </g>
        <g id="g24" transform="translate(146.435 7.122)">
          <path id="path26" d="M0-2.534c0-1.682.957-2.8,2.408-2.8.956,0,1.483.33,2.34,1.583A5.739,5.739,0,0,1,9-5.436a6.7,6.7,0,0,1,3.3.824,3.989,3.989,0,0,1,1.352,1.287c1.944-1.583,3.231-2.111,5.077-2.111A5.558,5.558,0,0,1,24.565.17V8.61a3.5,3.5,0,0,1-.33,2.011,2.408,2.408,0,0,1-4.189,0,3.444,3.444,0,0,1-.33-2.011V1.258a2.362,2.362,0,0,0-2.473-2.506,2.415,2.415,0,0,0-2.539,2.506V8.61a3.5,3.5,0,0,1-.33,2.011,2.407,2.407,0,0,1-4.188,0,3.438,3.438,0,0,1-.33-2.011V1.72c0-1.88-.923-2.968-2.506-2.968A2.426,2.426,0,0,0,4.847,1.258V8.61a3.5,3.5,0,0,1-.33,2.011,2.371,2.371,0,0,1-2.078,1.22,2.384,2.384,0,0,1-2.11-1.22A3.431,3.431,0,0,1,0,8.61Z" transform="translate(0 5.436)" fill="#292f38"/>
        </g>
        <g id="g28" transform="translate(27.434 0)">
          <path id="path30" d="M-4.924-2.448A2.808,2.808,0,0,1-7.727.388a2.815,2.815,0,0,1-2.836-2.836,2.837,2.837,0,0,1,2.869-2.8,2.815,2.815,0,0,1,2.769,2.8M-10.2,5.2a3.5,3.5,0,0,1,.33-2.011A2.386,2.386,0,0,1-7.76,1.971,2.372,2.372,0,0,1-5.682,3.191,3.443,3.443,0,0,1-5.353,5.2V15.919a3.509,3.509,0,0,1-.329,2.011A2.374,2.374,0,0,1-7.76,19.15a2.388,2.388,0,0,1-2.11-1.22,3.439,3.439,0,0,1-.33-2.011Z" transform="translate(10.563 5.251)" fill="#292f38"/>
        </g>
        <g id="g32" transform="translate(35.907 7.122)">
          <path id="path34" d="M0-2.563C0-4.277.989-5.4,2.473-5.4A2.219,2.219,0,0,1,4.715-3.717,5.75,5.75,0,0,1,9.167-5.5a6.3,6.3,0,0,1,4.221,1.451C14.673-2.892,15.135-1.705,15.135.6V8.549a3.492,3.492,0,0,1-.33,2.011,2.407,2.407,0,0,1-4.188,0,3.439,3.439,0,0,1-.329-2.011V1.757c0-1.88-1.056-3.068-2.7-3.068A2.761,2.761,0,0,0,4.848,1.559v6.99a3.5,3.5,0,0,1-.33,2.011,2.374,2.374,0,0,1-2.078,1.22A2.386,2.386,0,0,1,.33,10.56,3.431,3.431,0,0,1,0,8.549Z" transform="translate(0 5.497)" fill="#292f38"/>
        </g>
        <g id="g36" transform="translate(53.878 0)">
          <path id="path38" d="M-4.925-2.448A2.808,2.808,0,0,1-7.728.388a2.815,2.815,0,0,1-2.836-2.836,2.837,2.837,0,0,1,2.869-2.8,2.816,2.816,0,0,1,2.77,2.8M-10.2,5.2a3.492,3.492,0,0,1,.33-2.011A2.384,2.384,0,0,1-7.76,1.971,2.373,2.373,0,0,1-5.683,3.191,3.443,3.443,0,0,1-5.354,5.2V15.919a3.509,3.509,0,0,1-.329,2.011A2.375,2.375,0,0,1-7.76,19.15a2.386,2.386,0,0,1-2.11-1.22,3.432,3.432,0,0,1-.33-2.011Z" transform="translate(10.564 5.251)" fill="#292f38"/>
        </g>
        <g id="g40" transform="translate(61.265 7.22)">
          <path id="path42" d="M-9.3-2.016c.659-1.715,1.319-2.308,2.572-2.308A2.445,2.445,0,0,1-4.256-1.983,4,4,0,0,1-4.75-.136L-12.1,17.471c-.725,1.682-1.319,2.209-2.572,2.209a2.4,2.4,0,0,1-2.407-2.308,3.988,3.988,0,0,1,.495-1.814l1.912-4.452L-19.457-.2a3.8,3.8,0,0,1-.494-1.814,2.41,2.41,0,0,1,2.44-2.308c1.22,0,1.846.56,2.539,2.275l2.836,7.188Z" transform="translate(19.951 4.324)" fill="#292f38"/>
        </g>
        <g id="g44" transform="translate(77.256 7.122)">
          <path id="path46" d="M-12.238-2.3a8.874,8.874,0,0,1,2.177,6.067c0,4.946-3.463,8.672-8.078,8.672A8.091,8.091,0,0,1-24.075,9.8a8.8,8.8,0,0,1-2.177-6.167A8.237,8.237,0,0,1-18.14-4.941a8.068,8.068,0,0,1,5.9,2.638m-9.233,6c0,2.439,1.386,4.22,3.232,4.22,1.912,0,3.4-1.846,3.4-4.187,0-2.308-1.483-4.154-3.4-4.154-1.814,0-3.232,1.813-3.232,4.122" transform="translate(26.252 4.941)" fill="#69a842"/>
        </g>
        <g id="g48" transform="translate(127.436 7.182)">
          <path id="path50" d="M-12.238-2.3a8.879,8.879,0,0,1,2.176,6.067c0,4.946-3.462,8.672-8.078,8.672A8.091,8.091,0,0,1-24.076,9.8a8.8,8.8,0,0,1-2.175-6.166A8.236,8.236,0,0,1-18.14-4.941a8.073,8.073,0,0,1,5.9,2.638m-9.233,6c0,2.44,1.386,4.221,3.231,4.221,1.913,0,3.4-1.847,3.4-4.188,0-2.308-1.483-4.154-3.4-4.154-1.813,0-3.231,1.813-3.231,4.122" transform="translate(26.251 4.941)" fill="#292f38"/>
        </g>
        <g id="g52" transform="translate(95.456 0)">
          <path id="path54" d="M-4.234-18.487a3.5,3.5,0,0,1-.33,2.011,2.372,2.372,0,0,1-2.077,1.221,2.385,2.385,0,0,1-2.11-1.221,3.434,3.434,0,0,1-.33-2.011v-17.97a3.315,3.315,0,0,1,.33-1.979,2.386,2.386,0,0,1,2.11-1.22,2.411,2.411,0,0,1,2.077,1.187,3.437,3.437,0,0,1,.33,2.011Z" transform="translate(9.081 39.656)" fill="#292f38"/>
        </g>
        <g id="g56" transform="translate(103.075 18.883)">
          <path id="path58" d="M-4.925-2.448A2.808,2.808,0,0,1-7.728.388a2.815,2.815,0,0,1-2.836-2.836A2.836,2.836,0,0,1-7.7-5.251a2.816,2.816,0,0,1,2.771,2.8" transform="translate(10.564 5.251)" fill="#292f38"/>
        </g>
        <g id="g60" transform="translate(110.068 7.22)">
          <path id="path62" d="M-4.424-7.6a3.464,3.464,0,0,0,1.2,2.729A4.193,4.193,0,0,0-.358-3.82,5.068,5.068,0,0,0,2.1-4.463,3.215,3.215,0,0,1,3.727-4.89a2.529,2.529,0,0,1,1.623.606,2.294,2.294,0,0,1,.66,1.891A2.21,2.21,0,0,1,5.028-.645,8.987,8.987,0,0,1-.358,1a9.392,9.392,0,0,1-6.421-2.39A7.887,7.887,0,0,1-9.489-7.6v-.107a7.887,7.887,0,0,1,2.71-6.206A9.392,9.392,0,0,1-.358-16.305a8.982,8.982,0,0,1,5.386,1.641,2.21,2.21,0,0,1,.981,1.748,2.291,2.291,0,0,1-.66,1.89,2.53,2.53,0,0,1-1.623.607A3.223,3.223,0,0,1,2.1-10.847a5.074,5.074,0,0,0-2.462-.642,4.193,4.193,0,0,0-2.87,1.053,3.463,3.463,0,0,0-1.2,2.728Z" transform="translate(9.489 16.305)" fill="#292f38"/>
        </g>
      </g>
    </g>
    <path id="Path_1" data-name="Path 1" d="M188.292,393.421h4.6l-2.3-5.227Zm4.951.842H187.91l-.948,2.122H186l4.131-9.2h.92l4.131,9.2H194.2Z" transform="translate(114.068 2538.375)" fill="#2a3039"/>
    <path id="Path_2" data-name="Path 2" d="M201.658,390.955l.057,1.068a2.186,2.186,0,0,1,2.058-1.174,2.334,2.334,0,0,1,1.478.467l-.41.707a1.9,1.9,0,0,0-1.118-.347,2,2,0,0,0-2.009,2.051v3.692h-.884v-6.465Z" transform="translate(109.727 2537.305)" fill="#2a3039"/>
    <path id="Path_3" data-name="Path 3" d="M208.519,394.191a2.433,2.433,0,0,0,2.469,2.553c3.353,0,3.353-5.086,0-5.086a2.426,2.426,0,0,0-2.469,2.532Zm5.022-3.232h.828v6.5h-.828v-1.294a2.978,2.978,0,0,1-2.582,1.415,3.36,3.36,0,0,1,0-6.719,2.829,2.829,0,0,1,2.553,1.415Z" transform="translate(107.746 2537.302)" fill="#2a3039"/>
    <path id="Path_4" data-name="Path 4" d="M221.5,399.334a1.047,1.047,0,0,0,.877.474.806.806,0,0,0,.884-.446c.141-.488-.354-.919-1.21-.707l-.163-.12.276-1.089a3.14,3.14,0,0,1-2.716-3.289,3.19,3.19,0,0,1,3.367-3.339,3.247,3.247,0,0,1,2.327.976l-.58.566a2.476,2.476,0,0,0-1.74-.707,2.518,2.518,0,0,0,0,5.036,2.56,2.56,0,0,0,1.811-.707l.594.58a3.332,3.332,0,0,1-2.384.983l-.141.594c1.1,0,1.415.707,1.259,1.365a1.415,1.415,0,0,1-1.485.99,1.627,1.627,0,0,1-1.415-.707Z" transform="translate(104.279 2537.315)" fill="#2a3039"/>
    <path id="Path_5" data-name="Path 5" d="M55.151.324l-4.484,4.35L55.547,9.4v.064H54.4L49.782,5.006V9.462H48.87V.26h.912V4.4L54.062.26h1.089Z" transform="translate(285.764 2925.277)" fill="#2a3039"/>
    <path id="Path_6" data-name="Path 6" d="M245.7,389.924v6.514h.87v-6.514Zm1.082-2.016a.57.57,0,1,1,0-.035Z" transform="translate(96.644 2538.335)" fill="#2a3039"/>
    <path id="Path_7" data-name="Path 7" d="M250.745,390.955l.05,1.068a2.193,2.193,0,0,1,2.065-1.174,2.313,2.313,0,0,1,1.471.467l-.4.707a1.939,1.939,0,0,0-1.125-.361,2.009,2.009,0,0,0-2.016,2.051v3.692h-.877v-6.451Z" transform="translate(95.362 2537.305)" fill="#2a3039"/>
    <path id="Path_8" data-name="Path 8" d="M257.617,394.185a2.433,2.433,0,0,0,2.468,2.553c3.353,0,3.353-5.086,0-5.086a2.426,2.426,0,0,0-2.468,2.532Zm4.994-3.247h.828v6.5h-.813v-1.294a2.971,2.971,0,0,1-2.575,1.415,3.36,3.36,0,0,1,0-6.72,2.829,2.829,0,0,1,2.546,1.415Z" transform="translate(93.378 2537.307)" fill="#2a3039"/>
    <rect id="Rectangle_1" data-name="Rectangle 1" width="0.884" height="9.202" transform="translate(358.959 2925.537)" fill="#2a3039"/>
    <path id="Path_9" data-name="Path 9" d="M273.8,394.185a2.433,2.433,0,0,0,2.476,2.553c3.353,0,3.353-5.086,0-5.086a2.426,2.426,0,0,0-2.476,2.532Zm4.994-3.247h.835v6.5H278.8v-1.294a2.956,2.956,0,0,1-2.575,1.415,3.36,3.36,0,0,1,0-6.719,2.829,2.829,0,0,1,2.546,1.415Z" transform="translate(88.642 2537.307)" fill="#2a3039"/>
    <path id="Path_10" data-name="Path 10" d="M290.056,397.43v-3.756a1.91,1.91,0,1,0-3.812,0v3.756h-.884v-6.479h.828l.042,1.011a2.122,2.122,0,0,1,2.009-1.125,2.278,2.278,0,0,1,2.292,1.492,2.454,2.454,0,0,1,2.334-1.492,2.61,2.61,0,0,1,2.737,2.829v3.784h-.884v-3.784a1.832,1.832,0,0,0-1.86-1.994,1.909,1.909,0,0,0-1.924,2.023v3.756Z" transform="translate(84.986 2537.309)" fill="#2a3039"/>
    <path id="Path_11" data-name="Path 11" d="M302.836,394.185a2.433,2.433,0,0,0,2.469,2.553c3.353,0,3.353-5.086,0-5.086a2.426,2.426,0,0,0-2.469,2.532Zm4.994-3.247h.828v6.5h-.813v-1.294a2.971,2.971,0,0,1-2.575,1.415,3.36,3.36,0,0,1,0-6.72,2.829,2.829,0,0,1,2.546,1.415Z" transform="translate(80.143 2537.307)" fill="#2a3039"/>
    <path id="Path_12" data-name="Path 12" d="M319.478,397.432v-3.65a1.931,1.931,0,0,0-2.122-2.122,2.122,2.122,0,0,0-2.122,2.228v3.536h-.884v-6.472h.842v1.1a2.617,2.617,0,0,1,2.256-1.2,2.695,2.695,0,0,1,2.893,2.95v3.65Z" transform="translate(76.502 2537.307)" fill="#2a3039"/>
    <rect id="Rectangle_2" data-name="Rectangle 2" width="0.905" height="6.458" transform="translate(398.837 2928.281)" fill="#2a3039"/>
    <path id="Path_13" data-name="Path 13" d="M334.951,397.432v-3.65a1.931,1.931,0,0,0-2.122-2.122,2.122,2.122,0,0,0-2.122,2.228v3.536h-.877v-6.472h.828v1.1a2.617,2.617,0,0,1,2.263-1.2,2.7,2.7,0,0,1,2.893,2.95v3.65Z" transform="translate(71.971 2537.307)" fill="#2a3039"/>
    <path id="Path_14" data-name="Path 14" d="M163.248,3.415,165.228.26h2.935V.38l-3.657,5.411V9.462h-2.6V5.791L158.41.366V.26h2.928Z" transform="translate(253.703 2925.277)" fill="#6ba843"/>
    <path id="Path_15" data-name="Path 15" d="M361.268,393.3c-.064-1.026-2.193-1.068-2.355,0Zm2.171,1.549h-4.534a1.485,1.485,0,0,0,1.415.828,2.717,2.717,0,0,0,1.669-.523l1.181,1.323a4.244,4.244,0,0,1-2.957,1.082c-2.051,0-3.784-1.012-3.784-3.381a3.357,3.357,0,0,1,3.614-3.416C362.371,390.76,363.991,392.281,363.439,394.848Z" transform="translate(64.185 2537.33)" fill="#6ba843"/>
    <path id="Path_16" data-name="Path 16" d="M372.351,397.418v-3.593c0-.8-.46-1.075-.912-1.075a1.118,1.118,0,0,0-1.118,1.245v3.423H367.93v-6.486h2.122l.106.707a2.631,2.631,0,0,1,2.051-.87c1.365,0,2.539.707,2.539,3.049v3.607Z" transform="translate(60.82 2537.328)" fill="#6ba843"/>
    <path id="Path_17" data-name="Path 17" d="M381.865,396.274v-6.366h-2.433v6.366Zm-1.21-9.386a1.224,1.224,0,1,1-1.365,1.224,1.245,1.245,0,0,1,1.365-1.224Z" transform="translate(57.495 2538.465)" fill="#6ba843"/>
    <path id="Path_18" data-name="Path 18" d="M206.108,3.415,208.089.26h2.935V.38l-3.657,5.411V9.462h-2.6V5.791L201.27.366V.26H204.2Z" transform="translate(241.159 2925.277)" fill="#6ba843"/>
    <path id="Path_19" data-name="Path 19" d="M404.38,394.182a1.344,1.344,0,1,0-1.344,1.415,1.33,1.33,0,0,0,1.344-1.415Zm2.362,0c0,2.37-1.874,3.4-3.706,3.4s-3.706-1.026-3.706-3.4,1.825-3.4,3.706-3.4S406.743,391.82,406.743,394.182Z" transform="translate(51.629 2537.324)" fill="#6ba843"/>
    <rect id="Rectangle_3" data-name="Rectangle 3" width="2.391" height="9.216" transform="translate(459.433 2925.522)" fill="#6ba843"/>
    <path id="Path_20" data-name="Path 20" d="M419.008,391v3.593c0,.8.46,1.075.905,1.075a1.082,1.082,0,0,0,1.118-1.209V391h2.4v6.493h-2.122l-.106-.707a2.631,2.631,0,0,1-2.051.87c-1.365,0-2.539-.707-2.539-3.048V391Z" transform="translate(46.572 2537.26)" fill="#6ba843"/>
  </g>
</svg>
