<svg xmlns="http://www.w3.org/2000/svg" width="23.999" height="24" viewBox="0 0 23.999 24">
  <g id="telephone" transform="translate(-0.006)">
    <g id="Group_33" data-name="Group 33" transform="translate(0.006)">
      <path id="Path_31" data-name="Path 31" d="M18.252,59.71a1.682,1.682,0,0,0-2.542,0c-.594.589-1.189,1.179-1.773,1.778a.35.35,0,0,1-.489.09c-.385-.21-.794-.38-1.164-.609a18.437,18.437,0,0,1-4.445-4.045,10.53,10.53,0,0,1-1.593-2.552.366.366,0,0,1,.09-.469c.594-.574,1.174-1.164,1.758-1.753a1.688,1.688,0,0,0,0-2.6c-.464-.469-.929-.929-1.393-1.4s-.954-.964-1.438-1.438a1.692,1.692,0,0,0-2.542,0c-.6.589-1.174,1.194-1.783,1.773a2.894,2.894,0,0,0-.909,1.953A8.273,8.273,0,0,0,.662,54,21.638,21.638,0,0,0,4.5,60.4a23.766,23.766,0,0,0,7.871,6.158,11.383,11.383,0,0,0,4.36,1.269,3.2,3.2,0,0,0,2.742-1.044c.509-.569,1.084-1.089,1.623-1.633a1.7,1.7,0,0,0,.01-2.587Q19.685,61.131,18.252,59.71Z" transform="translate(-0.006 -43.833)" fill="#fff"/>
      <path id="Path_32" data-name="Path 32" d="M243.268,103.1l1.843-.315a8.272,8.272,0,0,0-7-6.787l-.26,1.853a6.393,6.393,0,0,1,5.414,5.249Z" transform="translate(-225.975 -91.206)" fill="#fff"/>
      <path id="Path_33" data-name="Path 33" d="M250.8,3.885A13.588,13.588,0,0,0,243.014,0l-.26,1.853a11.857,11.857,0,0,1,10.033,9.724l1.843-.315A13.688,13.688,0,0,0,250.8,3.885Z" transform="translate(-230.631)" fill="#fff"/>
    </g>
  </g>
</svg>
