<svg xmlns="http://www.w3.org/2000/svg" width="16.667" height="13.544" viewBox="0 0 16.667 13.544">
  <path id="Shape" d="M16.667,1.6a6.827,6.827,0,0,1-1.964.538A3.425,3.425,0,0,0,16.206.25a6.85,6.85,0,0,1-2.172.83A3.422,3.422,0,0,0,8.208,4.2,9.707,9.707,0,0,1,1.16.626,3.424,3.424,0,0,0,2.218,5.191,3.4,3.4,0,0,1,.67,4.763a3.422,3.422,0,0,0,2.742,3.4,3.427,3.427,0,0,1-1.544.058,3.422,3.422,0,0,0,3.194,2.374A6.875,6.875,0,0,1,0,12.008a9.68,9.68,0,0,0,5.242,1.536A9.67,9.67,0,0,0,14.96,3.374,6.962,6.962,0,0,0,16.667,1.6Z" fill="#232b65"/>
</svg>
