<svg xmlns="http://www.w3.org/2000/svg" width="16.667" height="11.664" viewBox="0 0 16.667 11.664">
  <g id="Group_264" data-name="Group 264" transform="translate(-1701.667 -7662.167)">
    <path id="Path" d="M8.328,0a48.415,48.415,0,0,1,6.527.36,2.058,2.058,0,0,1,1.462,1.462,20.843,20.843,0,0,1,.35,4.025,21.5,21.5,0,0,1-.35,4,2.071,2.071,0,0,1-1.462,1.472,51.322,51.322,0,0,1-6.527.34,49.765,49.765,0,0,1-6.516-.35A2.121,2.121,0,0,1,.34,9.842a22.082,22.082,0,0,1-.34-4A22.3,22.3,0,0,1,.34,1.822,2.154,2.154,0,0,1,1.812.34,51.177,51.177,0,0,1,8.328,0Z" transform="translate(1701.667 7662.167)" fill="#232b65"/>
    <path id="Path-2" data-name="Path" d="M0,0V4.993L4.334,2.5Z" transform="translate(1708.338 7665.502)" fill="#fff"/>
  </g>
</svg>
